<svg width="180" height="180" viewBox="0 0 180 180" fill="none" xmlns="http://www.w3.org/2000/svg">
<rect x="1" y="1" width="178" height="178" rx="89" fill="#FF5959"/>
<rect x="1" y="1" width="178" height="178" rx="89" stroke="#2B2B2B" stroke-width="2"/>
<path d="M59.3838 42H54.8478C52.5238 42 51.6838 41.104 51.6838 38.864V24.192C51.6838 22.596 52.7198 21.7 54.0638 21.7H59.4118L60.1118 25.48H56.2198C55.9398 25.48 55.8558 25.62 55.8558 25.872V37.828C55.8558 38.08 55.9398 38.22 56.2198 38.22H60.1118L59.3838 42ZM67.4935 25.256H65.8975C65.6175 25.256 65.5335 25.396 65.5335 25.648V38.024C65.5335 38.332 65.5895 38.444 65.9255 38.444H67.4655C67.8015 38.444 67.8575 38.332 67.8575 38.024V25.648C67.8575 25.396 67.7735 25.256 67.4935 25.256ZM71.9735 24.332V39.116C71.9735 40.656 71.3295 42 69.0615 42H64.3575C62.0895 42 61.4455 40.656 61.4455 39.116V24.332C61.4455 22.736 62.2855 21.7 64.1895 21.7H69.2295C71.1335 21.7 71.9735 22.736 71.9735 24.332ZM73.6408 42V21.7H77.5048L79.5768 29.848V21.7H83.7488V42H79.5768L77.3928 33.516V42H73.6408ZM92.1179 24.248L92.4819 21.7H96.5979L92.8459 42H88.6179L84.8659 21.7H88.9819L89.3459 24.304L90.7179 34.804L92.1179 24.248ZM97.7306 42V21.7H105.627L106.327 25.48H101.903V30.296H105.263V33.796H101.903V38.22H106.159L105.459 42H97.7306ZM113.786 25.256H111.798V32.256H113.786C114.094 32.256 114.178 32.144 114.178 31.836V25.676C114.178 25.424 114.066 25.256 113.786 25.256ZM118.182 24.332V33.74C118.182 34.636 117.538 35.532 116.362 35.532L118.49 42H114.29L112.33 35.532H111.798V42H107.738V21.7H115.438C117.342 21.7 118.182 22.736 118.182 24.332ZM120.356 21.7H127.86L128.868 25.48H126.152V42H122.008V25.48H119.292L120.356 21.7Z" fill="white"/>
<g clip-path="url(#clip0_19_6)">
<rect x="40" y="59" width="100" height="100" rx="50" fill="#FF5959"/>
<path d="M89.9998 62.5156V68.1797H136.484V62.5156H89.9998ZM49.3748 62.516L47.5381 66.2373L43.4307 66.8342L46.4027 69.7312L45.701 73.8223L49.3752 71.8902L53.0484 73.8219L52.3467 69.7311L55.3189 66.834L51.2111 66.2373L49.3748 62.516ZM64.9998 62.516L63.1631 66.2373L59.0553 66.8342L62.0273 69.7312L61.3262 73.8223L64.9998 71.89L68.673 73.8217L67.9715 69.7309L70.9436 66.834L66.8361 66.2373L64.9998 62.516ZM80.6248 62.516L78.7881 66.2373L74.6803 66.8342L77.6523 69.7312L76.9512 73.8223L80.6248 71.89L84.298 73.8217L83.5965 69.7309L86.5686 66.834L82.4611 66.2373L80.6248 62.516ZM72.9287 73.1381L71.0916 76.8594L66.9846 77.4563L69.9566 80.3531L69.2549 84.4439L72.9287 82.5123L76.602 84.4439L75.9008 80.3531L78.8725 77.4563L74.7646 76.8592L72.9287 73.1381ZM57.3041 73.5283L55.4672 77.25L51.3598 77.8469L54.332 80.7438L53.6303 84.8346L57.3041 82.9029L60.9773 84.8346L60.2762 80.7438L63.2478 77.8469L59.1404 77.25L57.3041 73.5283ZM89.9998 74.8203V80.6797H136.484V74.8203H89.9998ZM49.3748 84.3914L47.5381 88.1127L43.4307 88.7096L46.4027 91.6064L45.7012 95.6975L49.3754 93.7656L53.0486 95.6973L52.3469 91.6064L55.3189 88.7096L51.2111 88.1127L49.3748 84.3914ZM64.9998 84.3914L63.1631 88.1127L59.0553 88.7096L62.0273 91.6064L61.3262 95.6975L64.9998 93.7656L68.673 95.6973L67.9715 91.6064L70.9436 88.7096L66.8361 88.1127L64.9998 84.3914ZM80.6248 84.3914L78.7881 88.1127L74.6803 88.7096L77.6523 91.6064L76.9512 95.6975L80.6248 93.7656L84.298 95.6973L83.5965 91.6064L86.5686 88.7096L82.4611 88.1127L80.6248 84.3914ZM89.9998 87.3203V93.1797H136.484V87.3203H89.9998ZM57.3041 95.4033L55.4672 99.1248L51.3598 99.7217L54.332 102.619L53.6303 106.709L57.3041 104.778L60.9773 106.709L60.2762 102.619L63.2478 99.7217L59.1404 99.125L57.3041 95.4033ZM72.9287 95.4037L71.0918 99.1248L66.9848 99.7217L69.9568 102.619L69.2551 106.709L72.9289 104.778L76.6021 106.709L75.901 102.619L78.8727 99.7217L74.7648 99.1246L72.9287 95.4037ZM89.9998 99.8203V105.68H136.484V99.8203H89.9998ZM43.5154 112.32V118.18H136.484V112.32H43.5154ZM43.5154 124.82V130.68H136.484V124.82H43.5154ZM43.5154 137.32V143.18H136.484V137.32H43.5154ZM43.5154 149.82V155.484H136.484V149.82H43.5154Z" fill="white" fill-opacity="0.2"/>
<g clip-path="url(#clip1_19_6)">
<path d="M59.5612 131.222C60.4779 131.222 61.3696 131.558 62.2362 132.142C66.0362 109.625 118.797 109.23 122.667 131.336C127.295 132.48 131.222 143.497 133.078 159H46.9668C49.1696 142.614 53.9724 131.222 59.5612 131.222Z" fill="#373633"/>
<path d="M59.564 124.8C70.4612 93.8141 58.0778 67.3335 88.6334 67.3335C119.189 67.3335 112.9 90.0363 125.281 120.458C128.389 128.097 121.272 136.87 121.272 136.87C121.272 136.87 114.017 123.658 108.078 120.631C106.436 129.733 103.217 139.903 103.217 139.903C103.217 139.903 96.0473 131.667 87.6973 124.383C85.2556 127.186 81.9612 130.447 77.5223 134C76.5529 131.089 74.9028 127.503 73.1667 124.067C69.089 130.283 64.3279 137.82 64.3279 137.82C64.3279 137.82 57.364 131.056 59.564 124.8Z" fill="white"/>
<path d="M71.9641 72.8887C59.853 81.3859 56.5697 78.8887 50.2641 82.7831C44.3613 86.4276 44.7086 96.4998 49.9169 105.178C51.5252 97.7859 48.528 96.4303 69.1891 96.4303C83.078 96.4303 91.2113 97.2331 88.6336 93.6526C86.0558 90.072 60.7808 94.9276 71.9641 72.8887Z" fill="#FFCC4D"/>
<path d="M85.9306 79.8805C85.9306 80.9734 85.4965 82.0216 84.7237 82.7944C83.9509 83.5672 82.9027 84.0013 81.8098 84.0013C80.7169 84.0013 79.6687 83.5672 78.8959 82.7944C78.1231 82.0216 77.689 80.9734 77.689 79.8805C77.689 79.4444 77.7751 79.0333 77.9001 78.6416H85.7223C85.8445 79.0333 85.9306 79.4444 85.9306 79.8805Z" fill="#373633"/>
</g>
</g>
<defs>
<clipPath id="clip0_19_6">
<rect x="40" y="59" width="100" height="100" rx="50" fill="white"/>
</clipPath>
<clipPath id="clip1_19_6">
<rect width="100" height="100" fill="white" transform="translate(40 59)"/>
</clipPath>
</defs>
</svg>
